<svg xmlns="http://www.w3.org/2000/svg" version="1.1" viewBox="-5.0 -10.0 110.0 135.0">
 <path d="m93 21.281c-0.14844-0.57812-0.57031-1.0586-1.1211-1.2812-2-0.78125-4.1484-1.4219-6.3516-0.80859-0.57812 0.16016-1.1211 0.39844-1.6484 0.62891-0.44141 0.19141-0.87109 0.37891-1.2812 0.5-0.039062-0.14844-0.10156-0.30078-0.21094-0.42187-0.23047-0.26953-0.57812-0.39844-0.92969-0.33984-5.6406 0.98047-12.059-0.050782-18.262-1.0391-2.7109-0.42969-5.4805-0.87109-8.1992-1.1484v-7.2812c0-0.089844-0.03125-0.16016-0.050782-0.23828-0.23828-3.0195-2-4.7617-4.9492-4.7617-2.9492 0-4.7109 1.7305-4.9492 4.7617-0.015625 0.078126-0.046875 0.16016-0.046875 0.23828v7.1992c-0.050781 0.03125-0.089844 0.058594-0.12891 0.10156-2.6797 0.28125-5.3984 0.71094-8.0703 1.1406-6.1992 0.98828-12.609 2.0117-18.262 1.0391-0.35156-0.058593-0.71094 0.070313-0.92969 0.33984-0.10156 0.12109-0.17188 0.26953-0.21094 0.42188-0.41016-0.12109-0.83984-0.30859-1.2812-0.5-0.53125-0.23047-1.0703-0.46875-1.6484-0.62891-2.1992-0.60938-4.3516 0.03125-6.3516 0.80859-0.53906 0.20703-0.96875 0.67969-1.1172 1.2695-0.14844 0.57812-0.019531 1.1719 0.35156 1.6211 1.2617 1.5312 3.3008 2.4883 5.7383 2.7188 0.98047 0.089844 1.9609 0.078125 2.9102 0.070312 1.2695-0.019531 2.4609-0.03125 3.6289 0.19141 0.03125 0.011719 0.058594 0.011719 0.089844 0.011719 1.3398 2.3789 3.0117 4.6602 5.0703 6.8906 0.19141 0.21094 0.46094 0.32031 0.73828 0.32031 0.73828 0 1.4688-0.011719 2.1914-0.019531 3.6094-0.058594 6.7383-0.10938 9.8008 1.3281 0.48047 5.0508 0.19922 9.5586-0.10156 14.34-0.21094 3.2812-0.42188 6.6602-0.42188 10.52 0 0.35937 0.19141 0.69141 0.5 0.87109 0.64062 0.37109 1.2891 0.69141 1.9492 0.96875l-0.89844 24-2.5469-0.003906c-0.26953 0-0.51953 0.10938-0.71094 0.28906l-4 4c-0.17969 0.17187-0.28906 0.42969-0.28906 0.69141v3.7891c0 0.55078 0.44922 1 1 1s1-0.44922 1-1v-3.3789l3.4102-3.4102h27.172l3.418 3.4219v3.3789c0 0.55078 0.44922 1 1 1s1-0.44922 1-1v-3.7891c0-0.26953-0.10938-0.51953-0.28906-0.71094l-4-4c-0.19141-0.19141-0.44141-0.28906-0.71094-0.28906h-3.0508l-0.76172-14.879c0.19141 0.26953 0.48828 0.44141 0.82031 0.44141 0.078126 0 0.16016-0.011718 0.23828-0.03125 0.44922-0.10937 0.76172-0.51172 0.76172-0.96875 0-7.6094-0.42187-12.82-0.80078-17.422-0.46875-5.8281-0.85156-10.461-0.25-17.738 2.2188-1.4492 7.8281-1.4219 11.969-1.3906l1.5508 0.011719c0.28125 0 0.55078-0.12109 0.73828-0.32031 2.0508-2.2305 3.7305-4.5117 5.0703-6.8906 0.03125 0 0.058594 0 0.089844-0.011718 1.1602-0.21875 2.3594-0.19922 3.6289-0.19141 0.94922 0.011718 1.9219 0.019531 2.9102-0.070313 2.4414-0.23047 4.4805-1.1914 5.7383-2.7188 0.36719-0.47266 0.49609-1.0703 0.34766-1.6406zm-40.25 0.80859c-3.4414 0.10156-4.8398-1.1914-5.6719-2.8906 0.98828-0.070313 1.9688-0.10938 2.9219-0.10938 0.87891 0 1.7812 0.039062 2.6797 0.10156 0.03125 0.96875 0.050781 1.9375 0.070312 2.8984zm-2.75-15c2.0508 0 3 1.1016 3 3.4688 0 3.2383-1.75 6.5312-3 6.5312s-3-3.2891-3-6.5312c0-2.3672 0.94922-3.4688 3-3.4688zm-12.891 13.41c2.6094-0.42188 5.2695-0.83984 7.8711-1.1094 1.0195 2.4883 2.8711 4.7109 7.4492 4.7109 0.10937 0 0.23828-0.011718 0.35156-0.019531 0.019531 1.5117 0.03125 3.0195 0.039062 4.5195-8.1211 3.0312-16.172-1.2109-20.531-7.3711 1.6211-0.21875 3.2305-0.48047 4.8203-0.73047zm-21.129 3.1914c-0.94141 0.011719-1.8203 0.019532-2.6992-0.058594-1.0586-0.10156-2.9883-0.46875-4.2383-1.8398 1.6211-0.62109 3.3281-1.1094 4.9102-0.67188 0.44141 0.12109 0.89844 0.32031 1.3789 0.53125 0.82031 0.35938 1.7188 0.73828 2.6992 0.78906 0.17969 0.44141 0.37891 0.87109 0.57812 1.3008-0.89062-0.0625-1.7695-0.0625-2.6289-0.050782zm23.469 9.9492c-0.039063-0.32812-0.23047-0.62891-0.53125-0.78125-3.6602-1.9219-7.3398-1.8516-11.238-1.7891-0.57031 0.011719-1.1406 0.019532-1.7188 0.019532-2.6914-2.9805-4.6797-6.0508-6.0391-9.3281 3.2812 0.35938 6.7109 0.16016 10.172-0.25 3.6406 5.6797 10.102 10.109 17.262 10.109 1.7891 0 3.6289-0.30078 5.4805-0.89844 0.011718 2.1719 0.011718 4.3203 0.011718 6.4414-0.011718 6.1719-0.011718 12.559 0.17188 18.949 0.011719 0.28125 0.12891 0.53906 0.33984 0.73047 0.21094 0.17969 0.48828 0.26953 0.76953 0.23828 1.9805-0.21875 3.9609 0.12891 5.5312 0.94141 0.16016 2.5117 0.28906 5.2891 0.35156 8.5586-2.5898-2.5781-6.25-3.6094-9.5586-4.5391l-0.71094-0.19922c-1.2188-0.35156-2.4219-0.62109-3.5898-0.87891-2.5-0.57031-4.8789-1.1016-7.1289-2.2891 0.019531-3.5586 0.21875-6.7305 0.42187-9.8086 0.27344-5.0391 0.58594-9.7891 0.003907-15.227zm14.609 51.449-0.48047-15.07c-0.019531-0.55078-0.48047-0.98828-1.0312-0.96875s-0.98828 0.48047-0.96875 1.0312l0.48047 15h-4.9102l0.46875-16.969c0.011718-0.55078-0.42188-1.0117-0.96875-1.0312h-0.03125c-0.53906 0-0.98047 0.42969-1 0.96875l-0.46875 17.031h-4.6016l0.87109-23.281c1.4219 0.44922 2.8594 0.78125 4.2695 1.1016 1.1406 0.26172 2.3203 0.51953 3.4805 0.85938l0.71875 0.19922c3.0703 0.85937 6.0195 1.6992 8.1719 3.5508l0.89844 17.57-4.8984-0.003906zm19.98-53.988h-1.1016c-1.7617-0.011718-3.6719-0.019531-5.5312 0.070313 1.3086-1.1602 2.4688-2.5898 3.4102-4.25 0.26953-0.48047 0.10156-1.0898-0.37891-1.3594s-1.0898-0.10156-1.3594 0.37891c-1.5391 2.7109-3.7188 4.75-6.1406 5.75-1.4805 0.32031-2.7383 0.78906-3.5898 1.5195-0.19922 0.17187-0.32031 0.41016-0.33984 0.67187-0.67187 7.7109-0.26172 12.719 0.21094 18.52 0.089844 1.0898 0.17969 2.2109 0.26953 3.3906-1.3789-0.51953-2.9297-0.78906-4.5117-0.76172-0.14844-6.0195-0.14062-12.031-0.14062-17.852 0-4.6094 0.011718-9.3281-0.058594-14.09 0-0.050782 0.019531-0.089844 0.019531-0.14062 0-0.019531-0.019531-0.039063-0.019531-0.058594-0.019532-1.1719-0.050782-2.3516-0.078125-3.5312 2.6992 0.26953 5.4805 0.71094 8.1992 1.1484 5.7617 0.92188 11.699 1.8711 17.199 1.2695-1.3789 3.2617-3.3672 6.332-6.0586 9.3242zm12.68-7.4727c-0.87891 0.078125-1.7617 0.070313-2.6992 0.058594-0.85938-0.011719-1.7383-0.011719-2.6289 0.050781 0.19922-0.42969 0.39844-0.85938 0.57812-1.3008 0.98047-0.050781 1.8906-0.44141 2.6992-0.78906 0.48047-0.21094 0.94141-0.41016 1.3789-0.53125 1.5781-0.44141 3.2891 0.050781 4.9102 0.67187-1.2461 1.3711-3.168 1.7422-4.2383 1.8398z"/>
</svg>