<?xml version="1.0" encoding="UTF-8"?>
<svg width="1200pt" height="1200pt" version="1.1" viewBox="0 0 1200 1200" xmlns="http://www.w3.org/2000/svg">
 <path d="m792.42 303.41c-17.469-8.7266-37.035-13.34-56.59-13.34h-0.023437c-19.531 0.011719-39.074 4.6211-56.531 13.34l-4.9219 2.4531 0.89453 115.04c0.046875 5.3281 2.2695 10.5 6.0898 14.176 10.234 9.9219 22.73 18.043 32.801 23.746l-7.3398 28.605-40.555 28.918-38.055 0.015625v-20.793c12.891-9.7305 21.609-27.199 21.609-47.301 0-30.582-19.98-55.465-44.547-55.465s-44.547 24.883-44.547 55.465c0 20.102 8.7148 37.57 21.609 47.301v20.816l-27.777 0.011719-78.262-133.63h11.223v-35.516l-20.438-5.3594 0.003906-202.89-21.621-19.004-22.344 18.914v202.89l-20.438 5.4805v35.473h20.34l53.992 113.14v247.87h-0.09375l-0.16016 8.3047c-0.34375 17.707-0.58594 30.277-0.58594 49.398v5.9766l5.5508 2.2031c6.0781 2.4297 14.359 4.7812 22.363 7.0664 5.4531 1.5547 11.016 3.1523 15.68 4.7031v197.37c-5.793 1.8828-11.18 3.918-15.77 6.1953l-4.8984 2.4297v43.375l0.76953 5.9531 6.8125 3.2578h197.17l7.5938-3.8633v-48.723l-4.8984-2.4297c-4.5938-2.2773-9.9805-4.3125-15.77-6.1953v-197.56c4.6211-1.4844 10.105-3.0117 15.52-4.4922 8.293-2.2812 16.871-4.6445 22.984-7.0898l5.5508-2.2031v-5.9766c0-19.117-0.24219-31.688-0.58594-49.398l-0.16016-8.3047h-0.09375v-208.11l20.91-14.285 7.2852-65.293c9.1211-5.4609 19.441-12.52 28.176-20.984 3.832-3.6992 6.0547-8.8711 6.1016-14.199l0.89453-115.04-4.9219-2.4531zm-214.09 144.86c0-20.52 12.328-37.848 26.93-37.848 14.602 0 26.93 17.328 26.93 37.848s-12.328 37.848-26.93 37.848c-14.602 0-26.93-17.328-26.93-37.848zm26.93 55.465c1.8203 0 3.5547-0.40234 5.3203-0.67188v13.07h-10.645v-13.07c1.7656 0.26562 3.5 0.67188 5.3203 0.67188zm83.988 80.434-17.184 9.375-0.20703 0.011719-2.3203-57.906 18.957-13.52 0.75781 62.039zm-16.625 65.711c-8.1133-5.4258-17.605-9.8594-28.207-12.957v-102.95l7.4297-0.003906 3.543 88.73 15.117-8.2422 2.1133 35.422zm-148.29-150.22 19.129 32.66-2.457 61.32-0.039063-0.003907-17.371-9.4766zm16.734 114.1 16.406 8.9453 3.543-88.691 7.4883-0.003906v102.33c-11.098 3.0156-21.062 7.4297-29.559 12.953zm73.004 18.145v-97.918l12.73-0.003907v99.23c-4.1602-0.61719-8.3984-1.0586-12.73-1.3125zm-17.617-97.91v97.914c-3.5039 0.20703-6.9414 0.54297-10.332 0.99219v-98.902zm-10.141 116.64c3.3203-0.5 6.6914-0.88281 10.141-1.1172v357.93c-9.2695 0.21484-18.293 0.76562-26.988 1.6328 2.2305-59.801 5.3828-120.73 8.4453-179.69 3.0547-58.633 6.1875-119.21 8.4062-178.76zm27.754-1.125c3.832 0.25781 7.5859 0.67188 11.254 1.2539 2.2227 59.613 5.2109 120.24 8.1172 178.94 2.918 58.875 5.9219 119.71 8.1484 179.43-8.8594-0.89844-18.062-1.4688-27.52-1.6914zm-173.34-502.42 4.5078-3.8125 4.2188 3.7148v184.84h-8.7266zm-20.438 213.72 24.453-6.5547 25.152 6.5938v4.3086h-49.605zm35.578 21.965 51.105 87.258-0.41016 46.918-11.941-25.023v-0.23828h-0.11328l-51.977-108.91h13.336zm50.527 174.37-0.51172 37.438 18.082 9.8594-3.6719 61.508-0.53516 80.863-25.141-7.8633v-206.12l11.773 24.32zm2.5039 242.64c-5.2188-1.4922-10.562-3.0156-15.105-4.4961 0.039062-13.949 0.23047-24.801 0.48047-37.98l25.484 7.9648v37.676c-3.5234-1.0703-7.2109-2.1289-10.859-3.1641zm28.477-126.3c7.1406-8.0469 18.023-14.477 31.152-18.703-2.2148 57.883-5.2422 116.7-8.2031 173.7-3.125 59.984-6.3477 122-8.5703 182.88-4.9727 0.79297-9.7852 1.6797-14.379 2.6875zm156.44 388.91h-177.11v-23.832c20.438-8.5 53.605-13.672 88.555-13.672 34.934 0 68.105 5.1719 88.555 13.672v23.832zm-34.516-50.961c-2.2266-60.77-5.3008-122.71-8.2656-182.6-2.8242-57.004-5.7188-115.82-7.918-173.72 12.609 4.207 23.074 10.469 30.031 18.258v340.67c-4.4297-0.97266-9.0625-1.8359-13.848-2.6055zm42.312-211.68c-3.6523 1-7.3281 2.0195-10.852 3.0508v-37.395l25.945-8.1055c0.25 13.168 0.44141 24.016 0.48047 37.945-4.6211 1.4922-10.16 3.0156-15.574 4.5078zm14.75-60.809-25.598 8.0078v-79.125l-3.1562-62.688 19.395-10.574-0.49219-40.129 9.8516-6.7305v191.24zm21.918-227.55-32.027 21.887-0.28906-23.605 16.309-11.629 7.957-30.973c1.1367 0.51953 1.9297 0.86719 2.1016 0.94141l1.8008 0.70703h3.6016l1.6523-0.70703c0.24609-0.10547 1.8125-0.80469 3.9414-1.8047l-5.043 45.184zm40.555-90.625c0 0.625-0.25391 1.2109-0.72266 1.6641-14.234 13.785-34.34 24.066-42.254 27.824-7.9258-3.7578-28.043-14.043-42.277-27.848-0.45703-0.42969-0.71094-1.0156-0.71094-1.6406l-0.80469-103.89c10.527-4.5977 25.566-9.1758 43.742-9.1797h0.023437c18.215 0 33.262 4.5781 43.801 9.1797l-0.80469 103.89z"/>
</svg>
